<svg width="311" height="176" viewBox="0 0 311 176" fill="none" xmlns="http://www.w3.org/2000/svg">
<g clip-path="url(#clip0_1802_3444)">
<path d="M-74.1239 157.533C-74.1249 154.652 -75.2711 151.889 -77.3105 149.852C-79.35 147.815 -82.1158 146.67 -85 146.669V140.587C-82.1155 140.587 -79.3491 139.442 -77.3094 137.405C-75.2698 135.367 -74.1239 132.604 -74.1239 129.722C-74.1239 126.841 -75.2698 124.078 -77.3094 122.04C-79.3491 120.003 -82.1155 118.858 -85 118.858V112.776C-82.1155 112.776 -79.3491 111.632 -77.3094 109.594C-75.2698 107.557 -74.1239 104.794 -74.1239 101.912C-74.1239 99.0308 -75.2698 96.2675 -77.3094 94.2301C-79.3491 92.1927 -82.1155 91.0481 -85 91.0481V84.966C-83.5717 84.966 -82.1575 84.685 -80.8379 84.139C-79.5183 83.5931 -78.3194 82.7928 -77.3094 81.784C-76.2995 80.7752 -75.4984 79.5775 -74.9518 78.2594C-74.4052 76.9413 -74.1239 75.5286 -74.1239 74.1019C-74.1239 72.6752 -74.4052 71.2625 -74.9518 69.9444C-75.4984 68.6263 -76.2995 67.4286 -77.3094 66.4198C-78.3194 65.411 -79.5183 64.6108 -80.8379 64.0648C-82.1575 63.5188 -83.5717 63.2378 -85 63.2378V57.1557C-82.1155 57.1557 -79.3491 56.0111 -77.3094 53.9737C-75.2698 51.9363 -74.1239 49.173 -74.1239 46.2916C-74.1239 43.4103 -75.2698 40.647 -77.3094 38.6095C-79.3491 36.5721 -82.1155 35.4275 -85 35.4275V29.3454C-82.1155 29.3454 -79.3491 28.2008 -77.3094 26.1634C-75.2698 24.126 -74.1239 21.3627 -74.1239 18.4813C-74.1239 15.6 -75.2698 12.8367 -77.3094 10.7993C-79.3491 8.76185 -82.1155 7.61723 -85 7.61723V0.0146484H-17.8292C-17.8292 4.74194 -15.9492 9.27561 -12.6028 12.6183C-9.25641 15.961 -4.71772 17.8389 0.0148004 17.8389C4.74732 17.8389 9.286 15.961 12.6324 12.6183C15.9788 9.27561 17.8588 4.74194 17.8588 0.0146484H311V176.015H17.8588C17.8588 171.287 15.9788 166.754 12.6324 163.411C9.286 160.068 4.74732 158.19 0.0148004 158.19C-4.71772 158.19 -9.25641 160.068 -12.6028 163.411C-15.9492 166.754 -17.8292 171.287 -17.8292 176.015H-85V168.412C-83.5704 168.412 -82.1549 168.131 -80.8344 167.584C-79.5138 167.037 -78.3142 166.235 -77.304 165.225C-76.2939 164.214 -75.4931 163.015 -74.9474 161.695C-74.4017 160.375 -74.1219 158.961 -74.1239 157.533Z" fill="#EDE8D3"/>
</g>
<defs>
<clipPath id="clip0_1802_3444">
<rect width="311" height="176" fill="white"/>
</clipPath>
</defs>
</svg>
