<svg width="20" height="19" viewBox="0 0 20 19" fill="none" xmlns="http://www.w3.org/2000/svg">
<path d="M17.8193 0H15.9502V1.86916C15.9502 2.24299 15.6386 2.49221 15.3271 2.49221C15.0156 2.49221 14.7041 2.24299 14.7041 1.86916V0H4.7352V1.86916C4.7352 2.24299 4.42368 2.49221 4.11215 2.49221C3.80062 2.49221 3.4891 2.24299 3.4891 1.86916V0H1.61994C0.685358 0 0 0.809969 0 1.86916V4.11215H19.9377V1.86916C19.9377 0.809969 18.8162 0 17.8193 0ZM0 5.42056V16.8224C0 17.9439 0.685358 18.6916 1.68224 18.6916H17.8816C18.8785 18.6916 20 17.8816 20 16.8224V5.42056H0ZM5.54517 15.8879H4.04984C3.80062 15.8879 3.5514 15.7009 3.5514 15.3894V13.8318C3.5514 13.5826 3.73832 13.3333 4.04984 13.3333H5.60748C5.8567 13.3333 6.10592 13.5202 6.10592 13.8318V15.3894C6.04361 15.7009 5.8567 15.8879 5.54517 15.8879ZM5.54517 10.2804H4.04984C3.80062 10.2804 3.5514 10.0935 3.5514 9.78193V8.2243C3.5514 7.97508 3.73832 7.72586 4.04984 7.72586H5.60748C5.8567 7.72586 6.10592 7.91277 6.10592 8.2243V9.78193C6.04361 10.0935 5.8567 10.2804 5.54517 10.2804ZM10.5296 15.8879H8.97196C8.72274 15.8879 8.47352 15.7009 8.47352 15.3894V13.8318C8.47352 13.5826 8.66044 13.3333 8.97196 13.3333H10.5296C10.7788 13.3333 11.028 13.5202 11.028 13.8318V15.3894C11.028 15.7009 10.8411 15.8879 10.5296 15.8879ZM10.5296 10.2804H8.97196C8.72274 10.2804 8.47352 10.0935 8.47352 9.78193V8.2243C8.47352 7.97508 8.66044 7.72586 8.97196 7.72586H10.5296C10.7788 7.72586 11.028 7.91277 11.028 8.2243V9.78193C11.028 10.0935 10.8411 10.2804 10.5296 10.2804ZM15.514 15.8879H13.9564C13.7072 15.8879 13.4579 15.7009 13.4579 15.3894V13.8318C13.4579 13.5826 13.6449 13.3333 13.9564 13.3333H15.514C15.7632 13.3333 16.0125 13.5202 16.0125 13.8318V15.3894C16.0125 15.7009 15.8255 15.8879 15.514 15.8879ZM15.514 10.2804H13.9564C13.7072 10.2804 13.4579 10.0935 13.4579 9.78193V8.2243C13.4579 7.97508 13.6449 7.72586 13.9564 7.72586H15.514C15.7632 7.72586 16.0125 7.91277 16.0125 8.2243V9.78193C16.0125 10.0935 15.8255 10.2804 15.514 10.2804Z" fill="#7B1717"/>
</svg>
