<svg width="85" height="176" viewBox="0 0 85 176" fill="none" xmlns="http://www.w3.org/2000/svg">
<path d="M10.8761 157.518C10.8751 154.637 9.7289 151.874 7.68945 149.837C5.65001 147.8 2.88421 146.655 0 146.654V140.572C2.88452 140.572 5.6509 139.427 7.69057 137.39C9.73024 135.353 10.8761 132.589 10.8761 129.708C10.8761 126.827 9.73024 124.063 7.69057 122.026C5.6509 119.988 2.88452 118.844 0 118.844V112.762C2.88452 112.762 5.6509 111.617 7.69057 109.58C9.73024 107.542 10.8761 104.779 10.8761 101.898C10.8761 99.0162 9.73024 96.2529 7.69057 94.2155C5.6509 92.178 2.88452 91.0334 0 91.0334V84.9514C1.42827 84.9514 2.84255 84.6704 4.1621 84.1244C5.48165 83.5784 6.68063 82.7782 7.69057 81.7693C8.70051 80.7605 9.50163 79.5629 10.0482 78.2448C10.5948 76.9267 10.8761 75.514 10.8761 74.0873C10.8761 72.6606 10.5948 71.2478 10.0482 69.9297C9.50163 68.6117 8.70051 67.414 7.69057 66.4052C6.68063 65.3964 5.48165 64.5961 4.1621 64.0501C2.84255 63.5042 1.42827 63.2232 0 63.2232V57.1411C2.88452 57.1411 5.6509 55.9965 7.69057 53.9591C9.73024 51.9216 10.8761 49.1583 10.8761 46.277C10.8761 43.3956 9.73024 40.6323 7.69057 38.5949C5.6509 36.5575 2.88452 35.4129 0 35.4129V29.3308C2.88452 29.3308 5.6509 28.1862 7.69057 26.1488C9.73024 24.1114 10.8761 21.348 10.8761 18.4667C10.8761 15.5854 9.73024 12.822 7.69057 10.7846C5.6509 8.7472 2.88452 7.60259 0 7.60259V0H67.1708C67.1749 4.72202 69.0545 9.24949 72.3972 12.5885C75.7399 15.9274 80.2723 17.805 84.9996 17.8091V158.161C80.2671 158.161 75.7284 160.038 72.382 163.381C69.0356 166.724 67.1556 171.258 67.1556 175.985H0V168.382C2.88452 168.382 5.6509 167.238 7.69057 165.2C9.73024 163.163 10.8761 160.399 10.8761 157.518Z" fill="#7B1717"/>
</svg>
