<svg width="24" height="24" viewBox="0 0 24 24" fill="none" xmlns="http://www.w3.org/2000/svg">
<circle cx="12" cy="12" r="11.5" fill="white" stroke="#7B1717"/>
<path d="M12 7C10.0031 7 8.37842 8.62465 8.37842 10.6216C8.37842 13.0999 11.6194 16.7381 11.7574 16.8918C11.887 17.0362 12.1133 17.0359 12.2427 16.8918C12.3807 16.7381 15.6217 13.0999 15.6217 10.6216C15.6216 8.62465 13.997 7 12 7ZM12 12.4437C10.9953 12.4437 10.1779 11.6263 10.1779 10.6216C10.1779 9.61688 10.9953 8.79949 12 8.79949C13.0047 8.79949 13.8221 9.61689 13.8221 10.6216C13.8221 11.6263 13.0047 12.4437 12 12.4437Z" fill="#7B1717"/>
</svg>
