<svg width="30" height="30" viewBox="0 0 30 30" fill="none" xmlns="http://www.w3.org/2000/svg">
<g clip-path="url(#clip0_570_2620)">
<path d="M15 0C23.2734 0 30 6.72656 30 15C30 23.2734 23.2734 30 15 30C6.72656 30 0 23.2734 0 15C0 6.72656 6.72656 0 15 0Z" fill="black"/>
<path d="M7.14844 14.1152L11.2383 9.33984C11.7305 8.76562 12.5918 8.70117 13.1602 9.19336C13.7344 9.68555 13.7988 10.5469 13.3066 11.1152L11.1445 13.6348H21.8145C22.5703 13.6348 23.1797 14.2441 23.1797 15C23.1797 15.7559 22.5703 16.3652 21.8145 16.3652H11.1445L13.3066 18.8848C13.7988 19.459 13.7285 20.3203 13.1602 20.8066C12.9023 21.0293 12.5859 21.1348 12.2754 21.1348C11.8887 21.1348 11.5078 20.9707 11.2383 20.6602L7.14844 15.8848C6.70898 15.375 6.70898 14.625 7.14844 14.1152Z" fill="white"/>
</g>
<defs>
<clipPath id="clip0_570_2620">
<rect width="30" height="30" fill="white"/>
</clipPath>
</defs>
</svg>
