<svg width="14" height="14" viewBox="0 0 14 14" fill="none" xmlns="http://www.w3.org/2000/svg">
<rect width="14" height="14" fill="#F5F5F5"/>
<g clip-path="url(#clip0_262_1844)">
<rect width="1440" height="3131" transform="translate(-222 -1512)" fill="white"/>
<rect x="-142" y="-342" width="626" height="382" rx="10" fill="white"/>
<g clip-path="url(#clip1_262_1844)">
<path d="M12.4735 0.464844H11.1651V1.77325C11.1651 2.03494 10.947 2.20939 10.729 2.20939C10.5109 2.20939 10.2928 2.03494 10.2928 1.77325V0.464844H3.31464V1.77325C3.31464 2.03494 3.09657 2.20939 2.8785 2.20939C2.66044 2.20939 2.44237 2.03494 2.44237 1.77325V0.464844H1.13396C0.479751 0.464844 0 1.03182 0 1.77325V3.34335H13.9564V1.77325C13.9564 1.03182 13.1713 0.464844 12.4735 0.464844ZM0 4.25924V12.2405C0 13.0256 0.479751 13.549 1.17757 13.549H12.5171C13.215 13.549 14 12.982 14 12.2405V4.25924H0ZM3.88162 11.5863H2.83489C2.66044 11.5863 2.48598 11.4555 2.48598 11.2374V10.1471C2.48598 9.97263 2.61682 9.79818 2.83489 9.79818H3.92523C4.09969 9.79818 4.27414 9.92902 4.27414 10.1471V11.2374C4.23053 11.4555 4.09969 11.5863 3.88162 11.5863ZM3.88162 7.66111H2.83489C2.66044 7.66111 2.48598 7.53026 2.48598 7.3122V6.22185C2.48598 6.0474 2.61682 5.87294 2.83489 5.87294H3.92523C4.09969 5.87294 4.27414 6.00378 4.27414 6.22185V7.3122C4.23053 7.53026 4.09969 7.66111 3.88162 7.66111ZM7.37072 11.5863H6.28037C6.10592 11.5863 5.93146 11.4555 5.93146 11.2374V10.1471C5.93146 9.97263 6.06231 9.79818 6.28037 9.79818H7.37072C7.54517 9.79818 7.71963 9.92902 7.71963 10.1471V11.2374C7.71963 11.4555 7.58879 11.5863 7.37072 11.5863ZM7.37072 7.66111H6.28037C6.10592 7.66111 5.93146 7.53026 5.93146 7.3122V6.22185C5.93146 6.0474 6.06231 5.87294 6.28037 5.87294H7.37072C7.54517 5.87294 7.71963 6.00378 7.71963 6.22185V7.3122C7.71963 7.53026 7.58879 7.66111 7.37072 7.66111ZM10.8598 11.5863H9.76947C9.59502 11.5863 9.42056 11.4555 9.42056 11.2374V10.1471C9.42056 9.97263 9.5514 9.79818 9.76947 9.79818H10.8598C11.0343 9.79818 11.2087 9.92902 11.2087 10.1471V11.2374C11.2087 11.4555 11.0779 11.5863 10.8598 11.5863ZM10.8598 7.66111H9.76947C9.59502 7.66111 9.42056 7.53026 9.42056 7.3122V6.22185C9.42056 6.0474 9.5514 5.87294 9.76947 5.87294H10.8598C11.0343 5.87294 11.2087 6.00378 11.2087 6.22185V7.3122C11.2087 7.53026 11.0779 7.66111 10.8598 7.66111Z" fill="black"/>
</g>
</g>
<defs>
<clipPath id="clip0_262_1844">
<rect width="1440" height="3131" fill="white" transform="translate(-222 -1512)"/>
</clipPath>
<clipPath id="clip1_262_1844">
<rect width="14" height="14" fill="white"/>
</clipPath>
</defs>
</svg>
