<svg width="30" height="30" viewBox="0 0 30 30" fill="none" xmlns="http://www.w3.org/2000/svg">
<g clip-path="url(#clip0_583_3658)">
<path d="M26.5625 3.75H3.4375C1.54125 3.75 0 5.29125 0 7.1875V22.8125C0 24.7087 1.54125 26.25 3.4375 26.25H26.5625C28.4587 26.25 30 24.7087 30 22.8125V7.1875C30 5.29125 28.4587 3.75 26.5625 3.75ZM9.375 8.75C11.0975 8.75 12.5 10.1525 12.5 11.875C12.5 13.5975 11.0975 15 9.375 15C7.6525 15 6.25 13.5975 6.25 11.875C6.25 10.1525 7.6525 8.75 9.375 8.75ZM15 20.3125C15 20.83 14.58 21.25 14.0625 21.25H4.6875C4.17 21.25 3.75 20.83 3.75 20.3125V19.6875C3.75 17.7913 5.29125 16.25 7.1875 16.25H11.5625C13.4587 16.25 15 17.7913 15 19.6875V20.3125ZM25.3125 21.25H18.4375C17.92 21.25 17.5 20.83 17.5 20.3125C17.5 19.795 17.92 19.375 18.4375 19.375H25.3125C25.83 19.375 26.25 19.795 26.25 20.3125C26.25 20.83 25.83 21.25 25.3125 21.25ZM25.3125 16.25H18.4375C17.92 16.25 17.5 15.83 17.5 15.3125C17.5 14.795 17.92 14.375 18.4375 14.375H25.3125C25.83 14.375 26.25 14.795 26.25 15.3125C26.25 15.83 25.83 16.25 25.3125 16.25ZM25.3125 11.25H18.4375C17.92 11.25 17.5 10.83 17.5 10.3125C17.5 9.795 17.92 9.375 18.4375 9.375H25.3125C25.83 9.375 26.25 9.795 26.25 10.3125C26.25 10.83 25.83 11.25 25.3125 11.25Z" fill="black"/>
</g>
<defs>
<clipPath id="clip0_583_3658">
<rect width="30" height="30" fill="white"/>
</clipPath>
</defs>
</svg>
