<svg width="24" height="24" viewBox="0 0 24 24" fill="none" xmlns="http://www.w3.org/2000/svg">
<g id="delete" clip-path="url(#clip0_571_2934)">
<g id="Group 164">
<path id="Vector" d="M22.8 3.6001H1.2C0.88174 3.6001 0.576515 3.72653 0.351472 3.95157C0.126428 4.17661 0 4.48184 0 4.8001C0 5.11836 0.126428 5.42358 0.351472 5.64863C0.576515 5.87367 0.88174 6.0001 1.2 6.0001H3.6V20.4001C3.60029 21.3548 3.97966 22.2703 4.65473 22.9454C5.3298 23.6204 6.24531 23.9998 7.2 24.0001H16.8C17.7547 23.9998 18.6702 23.6205 19.3453 22.9454C20.0204 22.2703 20.3997 21.3548 20.4 20.4001V6.0001H22.8C23.1183 6.0001 23.4235 5.87367 23.6485 5.64863C23.8736 5.42358 24 5.11836 24 4.8001C24 4.48184 23.8736 4.17661 23.6485 3.95157C23.4235 3.72653 23.1183 3.6001 22.8 3.6001ZM10.8 16.8001C10.8 17.1184 10.6736 17.4236 10.4485 17.6486C10.2235 17.8737 9.91826 18.0001 9.6 18.0001C9.28174 18.0001 8.97652 17.8737 8.75147 17.6486C8.52643 17.4236 8.4 17.1184 8.4 16.8001V10.8001C8.4 10.4818 8.52643 10.1766 8.75147 9.95157C8.97652 9.72653 9.28174 9.6001 9.6 9.6001C9.91826 9.6001 10.2235 9.72653 10.4485 9.95157C10.6736 10.1766 10.8 10.4818 10.8 10.8001V16.8001ZM15.6 16.8001C15.6 17.1184 15.4736 17.4236 15.2485 17.6486C15.0235 17.8737 14.7183 18.0001 14.4 18.0001C14.0817 18.0001 13.7765 17.8737 13.5515 17.6486C13.3264 17.4236 13.2 17.1184 13.2 16.8001V10.8001C13.2 10.4818 13.3264 10.1766 13.5515 9.95157C13.7765 9.72653 14.0817 9.6001 14.4 9.6001C14.7183 9.6001 15.0235 9.72653 15.2485 9.95157C15.4736 10.1766 15.6 10.4818 15.6 10.8001V16.8001Z" fill="#7B1717"/>
<path id="Vector_2" d="M9.5999 2.4H14.3999C14.7182 2.4 15.0234 2.27357 15.2484 2.04853C15.4735 1.82348 15.5999 1.51826 15.5999 1.2C15.5999 0.88174 15.4735 0.576515 15.2484 0.351472C15.0234 0.126428 14.7182 0 14.3999 0H9.5999C9.28164 0 8.97642 0.126428 8.75137 0.351472C8.52633 0.576515 8.3999 0.88174 8.3999 1.2C8.3999 1.51826 8.52633 1.82348 8.75137 2.04853C8.97642 2.27357 9.28164 2.4 9.5999 2.4Z" fill="#7B1717"/>
</g>
</g>
<defs>
<clipPath id="clip0_571_2934">
<rect width="24" height="24" fill="white"/>
</clipPath>
</defs>
</svg>
