<svg width="24" height="24" viewBox="0 0 24 24" fill="none" xmlns="http://www.w3.org/2000/svg">
<circle cx="12" cy="12" r="11.5" fill="white" stroke="#7B1717"/>
<g clip-path="url(#clip0_1279_5591)">
<path d="M13.4796 12.415L12.6421 13.2554C12.3024 13.5962 11.7049 13.6036 11.3579 13.2554L10.5203 12.415L7.51221 15.4329C7.62418 15.4847 7.74764 15.5156 7.87889 15.5156H16.1211C16.2523 15.5156 16.3757 15.4847 16.4877 15.4329L13.4796 12.415Z" fill="#7B1717"/>
<path d="M16.121 8.48438H7.87885C7.7476 8.48438 7.62414 8.51527 7.51221 8.56705L10.7266 11.7921C10.7268 11.7923 10.7271 11.7924 10.7273 11.7926C10.7275 11.7928 10.7275 11.7931 10.7275 11.7931L11.7727 12.8417C11.8837 12.9527 12.1162 12.9527 12.2272 12.8417L13.2722 11.7933C13.2722 11.7933 13.2724 11.7928 13.2726 11.7926C13.2726 11.7926 13.2731 11.7923 13.2733 11.7921L16.4876 8.56703C16.3757 8.51523 16.2523 8.48438 16.121 8.48438Z" fill="#7B1717"/>
<path d="M7.09348 8.97656C7.03555 9.09371 7 9.22375 7 9.36305V14.6365C7 14.7758 7.03551 14.9058 7.09346 15.023L10.1068 11.9999L7.09348 8.97656Z" fill="#7B1717"/>
<path d="M16.9066 8.97656L13.8933 11.9999L16.9066 15.023C16.9645 14.9059 17.0001 14.7759 17.0001 14.6365V9.36309C17.0001 9.22375 16.9645 9.09371 16.9066 8.97656Z" fill="#7B1717"/>
</g>
<defs>
<clipPath id="clip0_1279_5591">
<rect width="10" height="10" fill="white" transform="translate(7 7)"/>
</clipPath>
</defs>
</svg>
