<svg width="30" height="30" viewBox="0 0 20 20" fill="none" xmlns="http://www.w3.org/2000/svg">
<path d="M16 10.9883H4C3.39844 10.9883 3 10.5898 3 9.98828C3 9.38672 3.39844 8.98828 4 8.98828H16C16.6016 8.98828 17 9.38672 17 9.98828C17 10.5898 16.6016 10.9883 16 10.9883Z" fill="black"/>
<path d="M13 15.793H7C6.39844 15.793 6 15.3945 6 14.793C6 14.1914 6.39844 13.793 7 13.793H13C13.6016 13.793 14 14.1914 14 14.793C14 15.3945 13.6016 15.793 13 15.793Z" fill="black"/>
<path d="M19 6.20703H1C0.398438 6.20703 0 5.80469 0 5.20703C0 4.60938 0.398438 4.20703 1 4.20703H19C19.6016 4.20703 20 4.60547 20 5.20703C20 5.80859 19.6016 6.20703 19 6.20703Z" fill="black"/>
</svg>
