<svg width="30" height="30" viewBox="0 0 30 30" fill="none" xmlns="http://www.w3.org/2000/svg">
<g clip-path="url(#clip0_477_2431)">
<path d="M27.5898 4.96211C24.3271 1.70025 19.0193 1.70025 15.7574 4.96211L14.9998 5.71929L14.2426 4.96211C10.9808 1.69981 5.67251 1.69981 2.41065 4.96211C-0.78498 8.15774 -0.805731 13.2232 2.36253 16.7451C5.2522 19.9561 13.7746 26.8936 14.1362 27.1872C14.3817 27.3867 14.6771 27.4839 14.9707 27.4839C14.9804 27.4839 14.9901 27.4839 14.9994 27.4834C15.3031 27.4975 15.6091 27.3933 15.8625 27.1872C16.2241 26.8936 24.7474 19.9561 27.638 16.7446C30.8058 13.2232 30.785 8.15774 27.5898 4.96211ZM25.6688 14.9728C23.4158 17.4758 17.2228 22.6379 14.9994 24.4697C12.7759 22.6383 6.58422 17.4766 4.33165 14.9733C2.12146 12.5167 2.10071 9.01824 4.28353 6.83542C5.39833 5.72106 6.86237 5.16343 8.32641 5.16343C9.79045 5.16343 11.2545 5.72062 12.3693 6.83542L14.0347 8.50079C14.2329 8.69903 14.4828 8.81735 14.7451 8.85885C15.1707 8.95024 15.6325 8.83148 15.9636 8.50123L17.6299 6.83542C19.8599 4.60625 23.4873 4.60669 25.7161 6.83542C27.8989 9.01824 27.8781 12.5167 25.6688 14.9728Z" fill="#7B1717"/>
</g>
<defs>
<clipPath id="clip0_477_2431">
<rect width="30" height="30" fill="white"/>
</clipPath>
</defs>
</svg>
