<svg width="24" height="24" viewBox="0 0 24 24" fill="none" xmlns="http://www.w3.org/2000/svg">
<g clip-path="url(#clip0_599_5178)">
<path d="M10.8934 7.05459V2.98584C6.66523 3.49209 3.30898 6.84834 2.80273 11.0765H6.87148C7.30273 9.07022 8.88711 7.48584 10.8934 7.05459Z" fill="black"/>
<path d="M17.1371 11.0765H21.2059C20.6996 6.84834 17.3434 3.49209 13.1152 2.98584V7.05459C15.1262 7.48584 16.7059 9.07022 17.1371 11.0765Z" fill="black"/>
<path d="M6.87148 13.2983H2.80273C3.30898 17.5265 6.66055 20.8827 10.8887 21.3843V17.3155C8.88711 16.889 7.30273 15.3093 6.87148 13.2983Z" fill="black"/>
<path d="M13.1152 17.3204V21.3892C17.3434 20.8829 20.6996 17.5313 21.2012 13.3032H17.1324C16.7059 15.3095 15.1262 16.8892 13.1152 17.3204Z" fill="black"/>
<path d="M2.80273 11.0767H1.17148C0.557422 11.0767 0.0605469 11.5735 0.0605469 12.1876C0.0605469 12.8017 0.557422 13.2985 1.17148 13.2985H2.80273C2.76055 12.9329 2.73711 12.5626 2.73711 12.1876C2.73711 11.8126 2.76055 11.4423 2.80273 11.0767Z" fill="black"/>
<path d="M9.32734 12.1876C9.32734 11.5735 8.83047 11.0767 8.21641 11.0767H6.87109C6.79609 11.4329 6.75391 11.8079 6.75391 12.1876C6.75391 12.5673 6.79609 12.9423 6.87109 13.2985H8.21641C8.83047 13.2985 9.32734 12.8017 9.32734 12.1876Z" fill="black"/>
<path d="M22.827 11.0767H21.2051C21.2473 11.4423 21.2707 11.8126 21.2707 12.1876C21.2707 12.5626 21.2473 12.9329 21.2051 13.2985H22.827C23.441 13.2985 23.9379 12.8017 23.9379 12.1876C23.9379 11.5735 23.441 11.0767 22.827 11.0767Z" fill="black"/>
<path d="M14.6719 12.1876C14.6719 12.8017 15.1688 13.2985 15.7828 13.2985H17.1375C17.2125 12.9423 17.2547 12.5673 17.2547 12.1876C17.2547 11.8079 17.2125 11.4329 17.1375 11.0767H15.7828C15.1688 11.0767 14.6719 11.5735 14.6719 12.1876Z" fill="black"/>
<path d="M13.1145 2.98594V1.11094C13.1145 0.496875 12.6176 0 12.0035 0C11.3895 0 10.8926 0.496875 10.8926 1.11094V2.98594C11.2582 2.94375 11.6285 2.92031 12.0035 2.92031C12.3785 2.92031 12.7488 2.94375 13.1145 2.98594Z" fill="black"/>
<path d="M12.0035 9.26719C12.6176 9.26719 13.1145 8.77031 13.1145 8.15625V7.05469C12.7582 6.97969 12.3832 6.9375 12.0035 6.9375C11.6238 6.9375 11.2488 6.97969 10.8926 7.05469V8.15625C10.8926 8.77031 11.3895 9.26719 12.0035 9.26719Z" fill="black"/>
<path d="M10.8926 21.3892V22.8892C10.8926 23.5032 11.3895 24.0001 12.0035 24.0001C12.6176 24.0001 13.1145 23.5032 13.1145 22.8892V21.3892C12.7488 21.4313 12.3785 21.4548 12.0035 21.4548C11.6285 21.4548 11.2582 21.4313 10.8926 21.3892Z" fill="black"/>
<path d="M12.0035 14.7329C11.3895 14.7329 10.8926 15.2298 10.8926 15.8438V17.3204C11.2488 17.3954 11.6238 17.4376 12.0035 17.4376C12.3832 17.4376 12.7582 17.3954 13.1145 17.3204V15.8438C13.1145 15.2298 12.6176 14.7329 12.0035 14.7329Z" fill="black"/>
</g>
<defs>
<clipPath id="clip0_599_5178">
<rect width="24" height="24" fill="white"/>
</clipPath>
</defs>
</svg>
