<svg width="30" height="30" viewBox="0 0 30 30" fill="none" xmlns="http://www.w3.org/2000/svg">
<g clip-path="url(#clip0_580_3599)">
<path d="M7.96875 8.84766C8.45416 8.84766 8.84766 8.45416 8.84766 7.96875C8.84766 7.48334 8.45416 7.08984 7.96875 7.08984C7.48334 7.08984 7.08984 7.48334 7.08984 7.96875C7.08984 8.45416 7.48334 8.84766 7.96875 8.84766Z" fill="black"/>
<path d="M22.0312 21.1523H15C14.5154 21.1523 14.1211 21.5466 14.1211 22.0312C14.1211 22.5159 14.5154 22.9102 15 22.9102H22.0312C22.5159 22.9102 22.9102 22.5159 22.9102 22.0312C22.9102 21.5466 22.5159 21.1523 22.0312 21.1523Z" fill="black"/>
<path d="M7.96875 15.8789C8.45416 15.8789 8.84766 15.4854 8.84766 15C8.84766 14.5146 8.45416 14.1211 7.96875 14.1211C7.48334 14.1211 7.08984 14.5146 7.08984 15C7.08984 15.4854 7.48334 15.8789 7.96875 15.8789Z" fill="black"/>
<path d="M7.96875 22.9102C8.45416 22.9102 8.84766 22.5167 8.84766 22.0312C8.84766 21.5458 8.45416 21.1523 7.96875 21.1523C7.48334 21.1523 7.08984 21.5458 7.08984 22.0312C7.08984 22.5167 7.48334 22.9102 7.96875 22.9102Z" fill="black"/>
<path d="M22.0312 14.1211H15C14.5154 14.1211 14.1211 14.5154 14.1211 15C14.1211 15.4846 14.5154 15.8789 15 15.8789H22.0312C22.5159 15.8789 22.9102 15.4846 22.9102 15C22.9102 14.5154 22.5159 14.1211 22.0312 14.1211Z" fill="black"/>
<path d="M23.584 0.0585938H6.41602C2.91053 0.0585938 0.0585938 2.91053 0.0585938 6.41602V23.584C0.0585938 27.0895 2.91053 29.9414 6.41602 29.9414H23.584C27.0895 29.9414 29.9414 27.0895 29.9414 23.584V6.41602C29.9414 2.91053 27.0895 0.0585938 23.584 0.0585938ZM7.96875 24.668C6.51486 24.668 5.33203 23.4851 5.33203 22.0312C5.33203 20.5774 6.51486 19.3945 7.96875 19.3945C9.42264 19.3945 10.6055 20.5774 10.6055 22.0312C10.6055 23.4851 9.42264 24.668 7.96875 24.668ZM7.96875 17.6367C6.51486 17.6367 5.33203 16.4539 5.33203 15C5.33203 13.5461 6.51486 12.3633 7.96875 12.3633C9.42264 12.3633 10.6055 13.5461 10.6055 15C10.6055 16.4539 9.42264 17.6367 7.96875 17.6367ZM7.96875 10.6055C6.51486 10.6055 5.33203 9.42264 5.33203 7.96875C5.33203 6.51486 6.51486 5.33203 7.96875 5.33203C9.42264 5.33203 10.6055 6.51486 10.6055 7.96875C10.6055 9.42264 9.42264 10.6055 7.96875 10.6055ZM22.0312 24.668H15C13.5461 24.668 12.3633 23.4851 12.3633 22.0312C12.3633 20.5774 13.5461 19.3945 15 19.3945H22.0312C23.4851 19.3945 24.668 20.5774 24.668 22.0312C24.668 23.4851 23.4851 24.668 22.0312 24.668ZM22.0312 17.6367H15C13.5461 17.6367 12.3633 16.4539 12.3633 15C12.3633 13.5461 13.5461 12.3633 15 12.3633H22.0312C23.4851 12.3633 24.668 13.5461 24.668 15C24.668 16.4539 23.4851 17.6367 22.0312 17.6367ZM22.0312 10.6055H15C13.5461 10.6055 12.3633 9.42264 12.3633 7.96875C12.3633 6.51486 13.5461 5.33203 15 5.33203H22.0312C23.4851 5.33203 24.668 6.51486 24.668 7.96875C24.668 9.42264 23.4851 10.6055 22.0312 10.6055Z" fill="black"/>
<path d="M22.0312 7.08984H15C14.5154 7.08984 14.1211 7.48412 14.1211 7.96875C14.1211 8.45338 14.5154 8.84766 15 8.84766H22.0312C22.5159 8.84766 22.9102 8.45338 22.9102 7.96875C22.9102 7.48412 22.5159 7.08984 22.0312 7.08984Z" fill="black"/>
</g>
<defs>
<clipPath id="clip0_580_3599">
<rect width="30" height="30" fill="white"/>
</clipPath>
</defs>
</svg>
