<svg width="24" height="24" viewBox="0 0 24 24" fill="none" xmlns="http://www.w3.org/2000/svg">
<circle cx="12" cy="12" r="11.5" fill="white" stroke="#7B1717"/>
<g clip-path="url(#clip0_1279_5590)">
<path d="M15.4101 13.2556C15.0488 12.8982 14.5976 12.8982 14.2382 13.2556C13.9648 13.5271 13.6894 13.7986 13.4218 14.0759C13.3476 14.1521 13.2851 14.1677 13.1953 14.1169C13.0175 14.0193 12.83 13.9412 12.6582 13.8357C11.8632 13.3357 11.1992 12.6931 10.6093 11.9705C10.3164 11.6111 10.0566 11.2263 9.87495 10.7947C9.83784 10.7068 9.84565 10.6501 9.91596 10.5779C10.1894 10.3123 10.457 10.0408 10.7265 9.76929C11.1015 9.39233 11.1015 8.94898 10.7246 8.57007C10.5097 8.35327 10.2968 8.14233 10.082 7.92554C9.86127 7.70483 9.64252 7.48218 9.41987 7.26343C9.05854 6.91187 8.60737 6.91187 8.24799 7.26538C7.9726 7.53687 7.70698 7.81616 7.42768 8.08374C7.16596 8.32983 7.0351 8.63062 7.00776 8.98218C6.96479 9.55444 7.10542 10.0955 7.30268 10.6228C7.70698 11.7146 8.32417 12.6834 9.07221 13.572C10.082 14.7732 11.289 15.7244 12.6992 16.4099C13.3339 16.7185 13.9921 16.9548 14.7089 16.9939C15.2011 17.0212 15.6289 16.8962 15.9726 16.5134C16.207 16.2517 16.4726 16.0115 16.7207 15.7615C17.0898 15.3884 17.0917 14.9373 16.7246 14.5681C16.289 14.1306 15.8496 13.6931 15.4101 13.2556Z" fill="#7B1717"/>
</g>
<defs>
<clipPath id="clip0_1279_5590">
<rect width="10" height="10" fill="white" transform="translate(7 7)"/>
</clipPath>
</defs>
</svg>
