<svg width="24" height="24" viewBox="0 0 24 24" fill="none" xmlns="http://www.w3.org/2000/svg">
<g clip-path="url(#clip0_542_3137)">
<path d="M20.4873 3.51241C15.8073 -1.16755 8.19187 -1.16755 3.51192 3.51241C-1.16804 8.19236 -1.16804 15.8078 3.51192 20.4878C5.85189 22.8278 8.9281 23.9954 11.9996 23.9954C15.0711 23.9954 18.1473 22.8278 20.4873 20.4878C25.1673 15.8078 25.1673 8.19236 20.4873 3.51241ZM16.9515 15.5359C17.3408 15.9251 17.3408 16.5581 16.9515 16.952C16.7546 17.149 16.5014 17.2475 16.2435 17.2475C15.9855 17.2475 15.7323 17.149 15.5354 16.952L11.9996 13.4116L8.46385 16.9473C8.2669 17.1443 8.01368 17.2428 7.75576 17.2428C7.49785 17.2428 7.24463 17.1443 7.04767 16.9473C6.65846 16.5581 6.65846 15.9251 7.04767 15.5312L10.5834 11.9954L7.04767 8.45965C6.65846 8.07044 6.65846 7.43738 7.04767 7.04347C7.43689 6.65426 8.06995 6.65426 8.46385 7.04347L11.9996 10.5792L15.5354 7.04347C15.9246 6.65426 16.5576 6.65426 16.9515 7.04347C17.3408 7.43269 17.3408 8.06575 16.9515 8.45965L13.4111 12.0001L16.9515 15.5359Z" fill="#7B1717"/>
</g>
<defs>
<clipPath id="clip0_542_3137">
<rect width="24" height="24" fill="white"/>
</clipPath>
</defs>
</svg>
