<svg width="30" height="30" viewBox="0 0 30 30" fill="none" xmlns="http://www.w3.org/2000/svg">
<g id="share">
<g id="Layer 2">
<path id="Vector" d="M23.1998 19.0912C22.3419 19.0932 21.4967 19.298 20.7331 19.6891C19.9695 20.0801 19.3093 20.6462 18.8063 21.3411L11.9678 16.7826C12.3987 15.6335 12.3987 14.3672 11.9678 13.2181L18.8063 8.65958C19.5738 9.70019 20.6873 10.433 21.9467 10.7263C23.206 11.0196 24.5287 10.8542 25.6771 10.2598C26.8255 9.66547 27.7242 8.68107 28.2119 7.4835C28.6996 6.28593 28.7443 4.95369 28.3379 3.72615C27.9315 2.4986 27.1007 1.45621 25.9947 0.786249C24.8888 0.11629 23.5801 -0.13732 22.3039 0.0709835C21.0278 0.279287 19.8677 0.935851 19.0321 1.92271C18.1966 2.90957 17.7404 4.16205 17.7454 5.45511C17.7542 5.6538 17.7743 5.85184 17.8054 6.04828L10.4542 10.9491C9.67077 10.2428 8.6994 9.77891 7.65772 9.61345C6.61603 9.44799 5.54872 9.58811 4.58503 10.0168C3.62135 10.4455 2.80264 11.1445 2.22805 12.029C1.65347 12.9135 1.34766 13.9456 1.34766 15.0003C1.34766 16.0551 1.65347 17.0872 2.22805 17.9717C2.80264 18.8562 3.62135 19.5551 4.58503 19.9839C5.54872 20.4126 6.61603 20.5527 7.65772 20.3872C8.6994 20.2218 9.67077 19.7578 10.4542 19.0516L17.8054 23.9524C17.7743 24.1488 17.7542 24.3469 17.7454 24.5456C17.7454 25.6244 18.0653 26.6789 18.6646 27.5759C19.264 28.4729 20.1158 29.172 21.1125 29.5848C22.1091 29.9976 23.2059 30.1056 24.2639 29.8952C25.322 29.6847 26.2938 29.1652 27.0567 28.4024C27.8195 27.6396 28.339 26.6677 28.5494 25.6097C28.7599 24.5516 28.6519 23.4549 28.239 22.4583C27.8262 21.4616 27.1271 20.6097 26.2301 20.0104C25.3331 19.4111 24.2786 19.0912 23.1998 19.0912Z" fill="black"/>
</g>
</g>
</svg>
