<svg width="30" height="30" viewBox="0 0 30 30" fill="none" xmlns="http://www.w3.org/2000/svg">
<g clip-path="url(#clip0_585_4134)">
<path d="M6.61477 25.1602C5.3843 25.1602 4.3882 24.1465 4.4175 22.9102C4.4468 21.709 5.45461 20.7598 6.66164 20.7598H14.9702C17.1441 20.7598 18.9605 19.0312 18.9898 16.8633C19.0249 14.6543 17.232 12.8496 15.0347 12.8496H9.97805C9.49172 12.8496 9.09914 13.2422 9.09914 13.7285C9.09914 14.2148 9.49172 14.6074 9.97805 14.6074H14.9878C16.189 14.6074 17.2027 15.5566 17.232 16.7578C17.2613 17.9941 16.2652 19.0078 15.0347 19.0078H6.67922C4.50539 19.0078 2.68898 20.7363 2.65969 22.9043C2.62453 25.1133 4.4175 26.918 6.61477 26.918H20.0327C20.5191 26.918 20.9116 26.5254 20.9116 26.0391C20.9116 25.5527 20.5191 25.1602 20.0327 25.1602H6.61477Z" fill="#7B1717"/>
<path d="M8.14429 4.48242C6.28101 2.61914 3.25757 2.61914 1.39429 4.48242C-0.468993 6.3457 -0.468993 9.36914 1.40015 11.2324L4.20679 14.0391C4.51734 14.3496 5.0271 14.3496 5.33765 14.0391L8.14429 11.2324C10.0134 9.36914 10.0134 6.3457 8.14429 4.48242ZM4.86304 9.29297C3.94898 9.36328 3.19312 8.60742 3.26343 7.69336C3.32202 6.97266 3.9021 6.39258 4.6228 6.33398C5.53687 6.26367 6.29273 7.01953 6.22241 7.93359C6.16382 8.6543 5.58374 9.24023 4.86304 9.29297Z" fill="#7B1717"/>
<path d="M28.6406 16.8159C26.7773 14.9292 23.7363 14.9175 21.8672 16.7925C20.0039 18.6558 20.0039 21.6792 21.8672 23.5425L24.6738 26.3492C24.9844 26.6597 25.4941 26.6597 25.8047 26.3492L28.5703 23.5835C30.4336 21.7261 30.4922 18.6909 28.6406 16.8159ZM25.3359 21.6089C24.4219 21.6792 23.666 20.9234 23.7363 20.0093C23.7949 19.2886 24.375 18.7085 25.0957 18.6499C26.0098 18.5796 26.7656 19.3355 26.6953 20.2495C26.6367 20.9702 26.0566 21.5503 25.3359 21.6089Z" fill="#7B1717"/>
</g>
<defs>
<clipPath id="clip0_585_4134">
<rect width="30" height="30" fill="white"/>
</clipPath>
</defs>
</svg>
