<svg width="24" height="24" viewBox="0 0 24 24" fill="none" xmlns="http://www.w3.org/2000/svg">
<path fill-rule="evenodd" clip-rule="evenodd" d="M5.28334 17.4562H8.58334C8.71928 17.4562 8.85053 17.5219 8.92553 17.6391L11.8271 21.8438C11.9115 21.9656 12.0896 21.9656 12.1693 21.8438L15.0708 17.6391C15.1505 17.5266 15.2771 17.4562 15.413 17.4562H18.4271C18.6005 17.4562 18.7552 17.5641 18.8162 17.7234L21.0333 23.4281C21.1412 23.7 20.9396 23.9953 20.6443 23.9953H3.35209C3.05678 23.9953 2.85522 23.7 2.96303 23.4281L5.28334 17.4562ZM12.0005 0C7.80991 0 4.41147 3.39844 4.41147 7.58906C4.41147 10.8516 6.77866 13.1578 8.52241 15.6844L11.6583 20.2313C11.8224 20.4703 12.1787 20.4703 12.3474 20.2313L15.4833 15.6844C17.2271 13.1578 19.5943 10.8516 19.5943 7.58906C19.5896 3.39844 16.1912 0 12.0005 0ZM12.0005 3.96094C14.7052 3.96094 16.6833 7.06406 14.5693 9.90469C14.5458 9.9375 14.5177 9.96563 14.4849 9.98906C11.6443 12.1031 8.54116 10.125 8.54116 7.42031C8.54116 5.5125 10.0927 3.96094 12.0005 3.96094Z" fill="#7B1717"/>
</svg>
