<svg width="512" height="512" viewBox="0 0 512 512" fill="none" xmlns="http://www.w3.org/2000/svg">
<rect width="512" height="512" rx="4" fill="#FAF8F2"/>
<g clip-path="url(#clip0_1027_3317)">
<path fill-rule="evenodd" clip-rule="evenodd" d="M187.211 311.877H221.003C222.395 311.877 223.739 312.549 224.507 313.749L254.219 356.805C255.083 358.053 256.907 358.053 257.723 356.805L287.435 313.749C288.251 312.597 289.547 311.877 290.939 311.877H321.803C323.579 311.877 325.163 312.981 325.787 314.613L348.491 373.029C349.595 375.813 347.531 378.837 344.507 378.837H167.435C164.411 378.837 162.347 375.813 163.451 373.029L187.211 311.877ZM255.995 133.125C213.083 133.125 178.283 167.925 178.283 210.837C178.283 244.245 202.523 267.861 220.379 293.733L252.491 340.293C254.171 342.741 257.819 342.741 259.547 340.293L291.659 293.733C309.515 267.861 333.755 244.245 333.755 210.837C333.707 167.925 298.907 133.125 255.995 133.125ZM255.995 173.685C283.691 173.685 303.947 205.461 282.299 234.549C282.059 234.885 281.771 235.173 281.435 235.413C252.347 257.061 220.571 236.805 220.571 209.109C220.571 189.573 236.459 173.685 255.995 173.685Z" fill="#7B1717"/>
</g>
<defs>
<clipPath id="clip0_1027_3317">
<rect width="245.76" height="245.76" fill="white" transform="translate(133.12 133.125)"/>
</clipPath>
</defs>
</svg>
