<svg width="24" height="24" viewBox="0 0 24 24" fill="none" xmlns="http://www.w3.org/2000/svg">
<rect width="24" height="24" fill="#F5F5F5"/>
<rect width="1440" height="2728" transform="translate(-127 -1848)" fill="white"/>
<g filter="url(#filter0_d_262_1844)">
<rect x="-47" y="-103" width="820" height="472" rx="10" fill="white"/>
</g>
<rect x="-27" y="-31" width="780" height="86" rx="5" fill="#EDE8D3" fill-opacity="0.3"/>
<rect x="-13" y="-13" width="50" height="50" rx="4" fill="white"/>
<path fill-rule="evenodd" clip-rule="evenodd" d="M5.28237 17.4562H8.58237C8.71831 17.4562 8.84955 17.5219 8.92455 17.6391L11.8261 21.8438C11.9105 21.9656 12.0886 21.9656 12.1683 21.8438L15.0699 17.6391C15.1496 17.5266 15.2761 17.4562 15.4121 17.4562H18.4261C18.5996 17.4562 18.7542 17.5641 18.8152 17.7234L21.0324 23.4281C21.1402 23.7 20.9386 23.9953 20.6433 23.9953H3.35112C3.0558 23.9953 2.85424 23.7 2.96205 23.4281L5.28237 17.4562ZM11.9996 0C7.80893 0 4.41049 3.39844 4.41049 7.58906C4.41049 10.8516 6.77768 13.1578 8.52143 15.6844L11.6574 20.2313C11.8214 20.4703 12.1777 20.4703 12.3464 20.2313L15.4824 15.6844C17.2261 13.1578 19.5933 10.8516 19.5933 7.58906C19.5886 3.39844 16.1902 0 11.9996 0ZM11.9996 3.96094C14.7042 3.96094 16.6824 7.06406 14.5683 9.90469C14.5449 9.9375 14.5167 9.96563 14.4839 9.98906C11.6433 12.1031 8.54018 10.125 8.54018 7.42031C8.54018 5.5125 10.0917 3.96094 11.9996 3.96094Z" fill="#7B1717"/>
<defs>
<filter id="filter0_d_262_1844" x="-53" y="-109" width="832" height="484" filterUnits="userSpaceOnUse" color-interpolation-filters="sRGB">
<feFlood flood-opacity="0" result="BackgroundImageFix"/>
<feColorMatrix in="SourceAlpha" type="matrix" values="0 0 0 0 0 0 0 0 0 0 0 0 0 0 0 0 0 0 127 0" result="hardAlpha"/>
<feOffset/>
<feGaussianBlur stdDeviation="3"/>
<feComposite in2="hardAlpha" operator="out"/>
<feColorMatrix type="matrix" values="0 0 0 0 0 0 0 0 0 0 0 0 0 0 0 0 0 0 0.1 0"/>
<feBlend mode="normal" in2="BackgroundImageFix" result="effect1_dropShadow_262_1844"/>
<feBlend mode="normal" in="SourceGraphic" in2="effect1_dropShadow_262_1844" result="shape"/>
</filter>
</defs>
</svg>
