<svg width="19" height="19" viewBox="0 0 19 19" fill="none" xmlns="http://www.w3.org/2000/svg">
<path d="M11.4673 11.3242C11.4673 11.3242 11.6138 11.1777 11.9067 10.8848C12.1997 10.5918 12.3462 10.0312 12.3462 9.20312C12.3462 8.375 12.0532 7.66797 11.4673 7.08203C10.8813 6.49609 10.1743 6.20312 9.34619 6.20312C8.51807 6.20312 7.81104 6.49609 7.2251 7.08203C6.63916 7.66797 6.34619 8.375 6.34619 9.20312C6.34619 10.0312 6.63916 10.7383 7.2251 11.3242C7.81104 11.9102 8.51807 12.2031 9.34619 12.2031C10.1743 12.2031 10.8813 11.9102 11.4673 11.3242ZM12.6157 5.93359C12.6157 5.93359 12.8403 6.1582 13.2896 6.60742C13.7388 7.05664 13.9634 7.92188 13.9634 9.20312C13.9634 10.4844 13.5142 11.5742 12.6157 12.4727C11.7173 13.3711 10.6274 13.8203 9.34619 13.8203C8.06494 13.8203 6.9751 13.3711 6.07666 12.4727C5.17822 11.5742 4.729 10.4844 4.729 9.20312C4.729 7.92188 5.17822 6.83203 6.07666 5.93359C6.9751 5.03516 8.06494 4.58594 9.34619 4.58594C10.6274 4.58594 11.7173 5.03516 12.6157 5.93359ZM14.9126 3.63672C14.9126 3.63672 14.9653 3.68945 15.0708 3.79492C15.1763 3.90039 15.229 4.10156 15.229 4.39844C15.229 4.69531 15.1235 4.94922 14.9126 5.16016C14.7017 5.37109 14.4478 5.47656 14.1509 5.47656C13.854 5.47656 13.6001 5.37109 13.3892 5.16016C13.1782 4.94922 13.0728 4.69531 13.0728 4.39844C13.0728 4.10156 13.1782 3.84766 13.3892 3.63672C13.6001 3.42578 13.854 3.32031 14.1509 3.32031C14.4478 3.32031 14.7017 3.42578 14.9126 3.63672ZM10.2427 1.81445C10.2427 1.81445 10.1069 1.81543 9.83545 1.81738C9.56396 1.81934 9.40088 1.82031 9.34619 1.82031C9.2915 1.82031 8.99268 1.81836 8.44971 1.81445C7.90674 1.81055 7.49463 1.81055 7.21338 1.81445C6.93213 1.81836 6.55518 1.83008 6.08252 1.84961C5.60986 1.86914 5.20752 1.9082 4.87549 1.9668C4.54346 2.02539 4.26416 2.09766 4.0376 2.18359C3.64697 2.33984 3.30322 2.56641 3.00635 2.86328C2.70947 3.16016 2.48291 3.50391 2.32666 3.89453C2.24072 4.12109 2.16846 4.40039 2.10986 4.73242C2.05127 5.06445 2.01221 5.4668 1.99268 5.93945C1.97314 6.41211 1.96143 6.78906 1.95752 7.07031C1.95361 7.35156 1.95361 7.76367 1.95752 8.30664C1.96143 8.84961 1.96338 9.14844 1.96338 9.20312C1.96338 9.25781 1.96143 9.55664 1.95752 10.0996C1.95361 10.6426 1.95361 11.0547 1.95752 11.3359C1.96143 11.6172 1.97314 11.9941 1.99268 12.4668C2.01221 12.9395 2.05127 13.3418 2.10986 13.6738C2.16846 14.0059 2.24072 14.2852 2.32666 14.5117C2.48291 14.9023 2.70947 15.2461 3.00635 15.543C3.30322 15.8398 3.64697 16.0664 4.0376 16.2227C4.26416 16.3086 4.54346 16.3809 4.87549 16.4395C5.20752 16.498 5.60986 16.5371 6.08252 16.5566C6.55518 16.5762 6.93213 16.5879 7.21338 16.5918C7.49463 16.5957 7.90674 16.5957 8.44971 16.5918C8.99268 16.5879 9.2915 16.5859 9.34619 16.5859C9.40088 16.5859 9.69971 16.5879 10.2427 16.5918C10.7856 16.5957 11.1978 16.5957 11.479 16.5918C11.7603 16.5879 12.1372 16.5762 12.6099 16.5566C13.0825 16.5371 13.4849 16.498 13.8169 16.4395C14.1489 16.3809 14.4282 16.3086 14.6548 16.2227C15.0454 16.0664 15.3892 15.8398 15.686 15.543C15.9829 15.2461 16.2095 14.9023 16.3657 14.5117C16.4517 14.2852 16.5239 14.0059 16.5825 13.6738C16.6411 13.3418 16.6802 12.9395 16.6997 12.4668C16.7192 11.9941 16.731 11.6172 16.7349 11.3359C16.7388 11.0547 16.7388 10.6426 16.7349 10.0996C16.731 9.55664 16.729 9.25781 16.729 9.20312C16.729 9.14844 16.731 8.84961 16.7349 8.30664C16.7388 7.76367 16.7388 7.35156 16.7349 7.07031C16.731 6.78906 16.7192 6.41211 16.6997 5.93945C16.6802 5.4668 16.6411 5.06445 16.5825 4.73242C16.5239 4.40039 16.4517 4.12109 16.3657 3.89453C16.2095 3.50391 15.9829 3.16016 15.686 2.86328C15.3892 2.56641 15.0454 2.33984 14.6548 2.18359C14.4282 2.09766 14.1489 2.02539 13.8169 1.9668C13.4849 1.9082 13.0825 1.86914 12.6099 1.84961C12.1372 1.83008 11.7603 1.81836 11.479 1.81445C11.1978 1.81055 10.7856 1.81055 10.2427 1.81445ZM18.2876 5.48828C18.3267 6.17578 18.3462 7.41406 18.3462 9.20312C18.3462 10.9922 18.3267 12.2305 18.2876 12.918C18.2095 14.543 17.7251 15.8008 16.8345 16.6914C15.9438 17.582 14.686 18.0664 13.061 18.1445C12.3735 18.1836 11.1353 18.2031 9.34619 18.2031C7.55713 18.2031 6.31885 18.1836 5.63135 18.1445C4.00635 18.0664 2.74854 17.582 1.85791 16.6914C0.967285 15.8008 0.48291 14.543 0.404785 12.918C0.365723 12.2305 0.346191 10.9922 0.346191 9.20312C0.346191 7.41406 0.365723 6.17578 0.404785 5.48828C0.48291 3.86328 0.967285 2.60547 1.85791 1.71484C2.74854 0.824219 4.00635 0.339844 5.63135 0.261719C6.31885 0.222656 7.55713 0.203125 9.34619 0.203125C11.1353 0.203125 12.3735 0.222656 13.061 0.261719C14.686 0.339844 15.9438 0.824219 16.8345 1.71484C17.7251 2.60547 18.2095 3.86328 18.2876 5.48828Z" fill="white"/>
</svg>
