<svg width="19" height="18" viewBox="0 0 19 18" fill="none" xmlns="http://www.w3.org/2000/svg">
<path d="M4.43604 5.58984V17.2031H0.568848V5.58984H4.43604ZM4.68213 2.00391C4.68994 2.57422 4.49268 3.05078 4.09033 3.43359C3.68799 3.81641 3.15869 4.00781 2.50244 4.00781H2.479C1.83838 4.00781 1.32275 3.81641 0.932129 3.43359C0.541504 3.05078 0.346191 2.57422 0.346191 2.00391C0.346191 1.42578 0.547363 0.947266 0.949707 0.568359C1.35205 0.189453 1.87744 0 2.52588 0C3.17432 0 3.69385 0.189453 4.08447 0.568359C4.4751 0.947266 4.67432 1.42578 4.68213 2.00391ZM18.3462 10.5469V17.2031H14.4907V10.9922C14.4907 10.1719 14.3325 9.5293 14.0161 9.06445C13.6997 8.59961 13.2056 8.36719 12.5337 8.36719C12.0415 8.36719 11.6294 8.50195 11.2974 8.77148C10.9653 9.04102 10.7173 9.375 10.5532 9.77344C10.4673 10.0078 10.4243 10.3242 10.4243 10.7227V17.2031H6.56885C6.58447 14.0859 6.59229 11.5586 6.59229 9.62109C6.59229 7.68359 6.58838 6.52734 6.58057 6.15234L6.56885 5.58984H10.4243V7.27734H10.4009C10.5571 7.02734 10.7173 6.80859 10.8813 6.62109C11.0454 6.43359 11.2661 6.23047 11.5435 6.01172C11.8208 5.79297 12.1606 5.62305 12.563 5.50195C12.9653 5.38086 13.4126 5.32031 13.9048 5.32031C15.2407 5.32031 16.3149 5.76367 17.1274 6.65039C17.9399 7.53711 18.3462 8.83594 18.3462 10.5469Z" fill="white"/>
</svg>
