<svg width="19" height="14" viewBox="0 0 19 14" fill="none" xmlns="http://www.w3.org/2000/svg">
<path d="M7.48804 9.20558L12.3494 6.69456L7.48804 4.15341V9.20558ZM9.34619 0.547581C10.4711 0.547581 11.5576 0.562647 12.6055 0.592779C13.6534 0.622911 14.4218 0.654717 14.9106 0.688197L15.6438 0.728374C15.6505 0.728374 15.7074 0.733396 15.8146 0.74344C15.9217 0.753484 15.9987 0.763528 16.0456 0.773572C16.0925 0.783616 16.1711 0.798682 16.2816 0.81877C16.3921 0.838859 16.4875 0.865644 16.5679 0.899123C16.6482 0.932604 16.742 0.976128 16.8491 1.0297C16.9563 1.08327 17.06 1.14855 17.1605 1.22556C17.2609 1.30256 17.358 1.39128 17.4518 1.49172C17.4919 1.5319 17.5438 1.59384 17.6074 1.67754C17.6711 1.76124 17.7682 1.9571 17.8987 2.26512C18.0293 2.57314 18.118 2.91129 18.1649 3.27957C18.2185 3.70812 18.2603 4.16512 18.2904 4.65059C18.3206 5.13605 18.339 5.51605 18.3457 5.79059V6.19236V7.55835C18.3524 8.52928 18.2921 9.50021 18.1649 10.4711C18.118 10.8394 18.0343 11.1725 17.9138 11.4705C17.7933 11.7685 17.6861 11.9744 17.5924 12.0882L17.4518 12.259C17.358 12.3594 17.2609 12.4481 17.1605 12.5251C17.06 12.6022 16.9563 12.6658 16.8491 12.716C16.742 12.7662 16.6482 12.8081 16.5679 12.8415C16.4875 12.875 16.3921 12.9018 16.2816 12.9219C16.1711 12.942 16.0908 12.957 16.0406 12.9671C15.9904 12.9771 15.9133 12.9872 15.8096 12.9972C15.7058 13.0073 15.6505 13.0123 15.6438 13.0123C13.9631 13.1395 11.8639 13.2031 9.34619 13.2031C7.96011 13.1897 6.75649 13.168 5.73534 13.1378C4.7142 13.1077 4.04292 13.0826 3.72151 13.0625L3.22935 13.0223L2.86776 12.9822C2.6267 12.9487 2.44423 12.9152 2.32036 12.8817C2.19648 12.8482 2.02573 12.7779 1.80811 12.6708C1.59049 12.5637 1.40132 12.4264 1.24062 12.259C1.20044 12.2188 1.14855 12.1569 1.08493 12.0732C1.02132 11.9895 0.924228 11.7936 0.793655 11.4856C0.663082 11.1776 0.574359 10.8394 0.527487 10.4711C0.473919 10.0426 0.432068 9.58558 0.401936 9.10012C0.371804 8.61465 0.35339 8.23465 0.346694 7.96011V7.55835V6.19236C0.339998 5.22143 0.400262 4.2505 0.527487 3.27957C0.574359 2.91129 0.65806 2.57816 0.778589 2.28018C0.899118 1.98221 1.00626 1.77631 1.1 1.66247L1.24062 1.49172C1.33436 1.39128 1.43145 1.30256 1.5319 1.22556C1.63234 1.14855 1.73612 1.08327 1.84326 1.0297C1.9504 0.976128 2.04414 0.932604 2.1245 0.899123C2.20485 0.865644 2.30027 0.838859 2.41075 0.81877C2.52124 0.798682 2.59992 0.783616 2.64679 0.773572C2.69366 0.763528 2.77067 0.753484 2.8778 0.74344C2.98494 0.733396 3.04186 0.728374 3.04855 0.728374C4.72926 0.607845 6.82847 0.547581 9.34619 0.547581Z" fill="white"/>
</svg>
